<svg xmlns="http://www.w3.org/2000/svg" viewBox="0 0 29.99 19.8"><defs><style>.cls-1{fill:none;stroke:#fff;stroke-miterlimit:10;stroke-width:0.54px;}</style></defs><g id="Layer_2" data-name="Layer 2"><g id="Layer_1-2" data-name="Layer 1"><path class="cls-1" d="M21.85,12.15a3.83,3.83,0,0,0-1.14.18v-.18a3,3,0,0,0-3-3,3.23,3.23,0,0,0-.88.13,5.77,5.77,0,0,0-11.51.44h-.1a4.92,4.92,0,0,0,0,9.84H21.85a3.69,3.69,0,0,0,0-7.38Z"/><path class="cls-1" d="M15.25,5.88A6,6,0,0,1,17.5,4.31a5.9,5.9,0,0,1,7,8.91"/><line class="cls-1" x1="16.8" y1="2.54" x2="15.84" y2="0.1"/><line class="cls-1" x1="27.36" y1="10.94" x2="29.95" y2="11.33"/><line class="cls-1" x1="24.51" y1="3.69" x2="26.14" y2="1.64"/></g></g></svg>