<svg xmlns="http://www.w3.org/2000/svg" viewBox="0 0 28.68 17.83"><defs><style>.cls-1{fill:none;stroke:#fff;stroke-miterlimit:10;stroke-width:0.54px;}</style></defs><g id="Layer_2" data-name="Layer 2"><g id="Layer_1-2" data-name="Layer 1"><path class="cls-1" d="M21.85,10.17a4,4,0,0,0-1.15.18,1.09,1.09,0,0,0,0-.18,3,3,0,0,0-3-3,2.89,2.89,0,0,0-.88.14,5.77,5.77,0,0,0-11.51.43h-.1a4.92,4.92,0,0,0,0,9.84H21.85a3.69,3.69,0,0,0,0-7.38Z"/><path class="cls-1" d="M25,15.71a3.69,3.69,0,0,0-.32-7.37,4,4,0,0,0-1.15.18c0-.06,0-.12,0-.18a3,3,0,0,0-3-3,3.23,3.23,0,0,0-.88.13A5.78,5.78,0,0,0,9.52,2.31"/></g></g></svg>