<svg xmlns="http://www.w3.org/2000/svg" viewBox="0 0 32.86 30.9"><defs><style>.cls-1{fill:none;stroke:#fff;stroke-miterlimit:10;stroke-width:0.54px;}.cls-2{fill:#fff;}</style></defs><g id="Layer_2" data-name="Layer 2"><g id="Layer_1-2" data-name="Layer 1"><path class="cls-1" d="M21.85,14a3.64,3.64,0,0,0-1.15.18,1.09,1.09,0,0,0,0-.18,3,3,0,0,0-3-3,3.23,3.23,0,0,0-.88.13,5.77,5.77,0,0,0-11.51.44h-.1a4.92,4.92,0,0,0,0,9.84H21.85a3.69,3.69,0,0,0,0-7.38Z"/><path class="cls-1" d="M25,19.51a3.69,3.69,0,0,0-.32-7.36,3.64,3.64,0,0,0-1.15.18c0-.06,0-.12,0-.18a3,3,0,0,0-3-3,3.17,3.17,0,0,0-.88.13A5.78,5.78,0,0,0,9.52,6.11"/><path class="cls-1" d="M18.12,5.88a5.89,5.89,0,0,1,9.19,7.33"/><line class="cls-1" x1="30.23" y1="10.94" x2="32.82" y2="11.33"/><line class="cls-1" x1="19.67" y1="2.54" x2="18.71" y2="0.1"/><line class="cls-1" x1="27.38" y1="3.69" x2="29.01" y2="1.64"/><path class="cls-2" d="M11,29.34a1.56,1.56,0,1,1-3.11,0c0-.86,1.56-3.11,1.56-3.11S11,28.48,11,29.34Z"/><path class="cls-2" d="M17.94,29.34a1.56,1.56,0,0,1-3.12,0c0-.86,1.56-3.11,1.56-3.11S17.94,28.48,17.94,29.34Z"/></g></g></svg>