<svg xmlns="http://www.w3.org/2000/svg" viewBox="0 0 28.68 30.51"><defs><style>.cls-1{fill:none;stroke:#fff;stroke-miterlimit:10;stroke-width:0.54px;}.cls-2{fill:#fff;}</style></defs><g id="Layer_2" data-name="Layer 2"><g id="Layer_1-2" data-name="Layer 1"><path class="cls-1" d="M21.85,10.17a3.89,3.89,0,0,0-1.14.18v-.18a3,3,0,0,0-3-3,3.24,3.24,0,0,0-.89.13,5.77,5.77,0,0,0-11.51.44h-.1a4.92,4.92,0,0,0,0,9.84H21.85a3.69,3.69,0,0,0,0-7.38Z"/><path class="cls-1" d="M25.05,15.71a3.69,3.69,0,0,0-.33-7.37,4,4,0,0,0-1.15.18,1.09,1.09,0,0,0,0-.18,3,3,0,0,0-3-3,3.23,3.23,0,0,0-.88.13A5.77,5.77,0,0,0,9.53,2.31"/><polygon class="cls-2" points="12.02 22.41 15.69 22.41 13.96 24.14 16.82 24.13 7.69 30.51 12.46 25.07 9.36 25.07 12.02 22.41"/></g></g></svg>