<svg xmlns="http://www.w3.org/2000/svg" viewBox="0 0 28.68 27.09"><defs><style>.cls-1,.cls-2,.cls-3{fill:none;}.cls-1,.cls-3{stroke:#fff;stroke-miterlimit:10;}.cls-1{stroke-width:0.54px;}.cls-3{stroke-width:0.36px;}</style></defs><g id="Layer_2" data-name="Layer 2"><g id="Layer_1-2" data-name="Layer 1"><path class="cls-1" d="M21.85,10.17a4,4,0,0,0-1.15.18,1.1,1.1,0,0,0,0-.18,3,3,0,0,0-3-3,3.24,3.24,0,0,0-.89.13,5.77,5.77,0,0,0-11.51.44h-.1a4.92,4.92,0,0,0,0,9.84H21.85a3.69,3.69,0,0,0,0-7.38Z"/><path class="cls-1" d="M25.05,15.71a3.69,3.69,0,0,0-.33-7.37,4,4,0,0,0-1.15.18,1.09,1.09,0,0,0,0-.18,3,3,0,0,0-3-3,3.24,3.24,0,0,0-.89.13A5.77,5.77,0,0,0,9.53,2.31"/><line class="cls-2" x1="9.43" y1="22.42" x2="9.43" y2="27.09"/><line class="cls-3" x1="9.43" y1="22.42" x2="9.43" y2="27.09"/><line class="cls-3" x1="7.78" y1="23.1" x2="11.08" y2="26.41"/><line class="cls-3" x1="7.78" y1="26.41" x2="11.08" y2="23.1"/><line class="cls-3" x1="11.77" y1="24.75" x2="7.1" y2="24.75"/><line class="cls-2" x1="16.38" y1="22.42" x2="16.38" y2="27.09"/><line class="cls-3" x1="16.38" y1="22.42" x2="16.38" y2="27.09"/><line class="cls-3" x1="14.73" y1="23.1" x2="18.03" y2="26.41"/><line class="cls-3" x1="14.73" y1="26.41" x2="18.03" y2="23.1"/><line class="cls-3" x1="18.72" y1="24.75" x2="14.05" y2="24.75"/></g></g></svg>