<svg xmlns="http://www.w3.org/2000/svg" viewBox="0 0 25.81 25.26"><defs><style>.cls-1{fill:none;stroke:#fff;stroke-miterlimit:10;stroke-width:0.54px;}.cls-2{fill:#fff;}</style></defs><g id="Layer_2" data-name="Layer 2"><g id="Layer_1-2" data-name="Layer 1"><path class="cls-1" d="M21.85,8.34a3.89,3.89,0,0,0-1.14.18V8.34a3,3,0,0,0-3-3,3.23,3.23,0,0,0-.88.13,5.77,5.77,0,0,0-11.51.44h-.1a4.92,4.92,0,0,0,0,9.84H21.85a3.69,3.69,0,0,0,0-7.38Z"/><path class="cls-2" d="M11,23.7a1.56,1.56,0,0,1-3.12,0c0-.86,1.56-3.11,1.56-3.11S11,22.84,11,23.7Z"/><path class="cls-2" d="M17.94,23.7a1.56,1.56,0,1,1-3.11,0c0-.86,1.55-3.11,1.55-3.11S17.94,22.84,17.94,23.7Z"/></g></g></svg>